<?xml version="1.0" standalone="no"?>
<!DOCTYPE svg PUBLIC "-//W3C//DTD SVG 20010904//EN"
 "http://www.w3.org/TR/2001/REC-SVG-20010904/DTD/svg10.dtd">
<svg version="1.0" xmlns="http://www.w3.org/2000/svg"
 width="300.000000pt" height="300.000000pt" viewBox="0 0 300.000000 300.000000"
 preserveAspectRatio="xMidYMid meet">
<metadata>
Created by potrace 1.14, written by Peter Selinger 2001-2017
</metadata>
<g transform="translate(0.000000,300.000000) scale(0.100000,-0.100000)"
fill="#000000" stroke="none">
<path d="M0 1500 l0 -1500 1500 0 1500 0 0 1500 0 1500 -1500 0 -1500 0 0
-1500z m432 1020 c78 -22 107 -109 85 -258 -7 -50 -9 -88 -5 -86 4 3 8 10 8
16 0 29 84 180 126 227 107 119 265 144 343 56 39 -45 53 -100 49 -191 -2 -40
-2 -71 0 -70 1 2 20 39 41 82 44 91 107 166 161 194 133 68 253 42 301 -65 32
-70 25 -166 -31 -432 -28 -130 -50 -263 -50 -296 0 -51 4 -62 29 -88 18 -18
40 -29 57 -29 44 0 108 37 157 90 26 28 53 50 60 50 48 0 47 -89 -1 -149 -16
-20 -51 -53 -78 -74 -151 -116 -349 -69 -394 92 -21 77 -12 160 54 459 42 193
46 272 15 303 -43 43 -128 3 -190 -88 -85 -123 -149 -336 -198 -657 -23 -152
-35 -171 -106 -171 -67 0 -80 19 -78 113 1 42 11 127 22 187 61 337 72 408 78
492 6 89 5 92 -20 117 -32 32 -57 33 -114 5 -110 -53 -209 -271 -267 -584 -15
-77 -33 -176 -41 -219 -8 -44 -21 -86 -30 -95 -22 -22 -99 -21 -122 2 -27 27
-22 147 15 372 61 362 74 509 50 533 -34 34 -100 1 -182 -89 -61 -68 -93 -76
-110 -27 -27 77 131 247 259 279 44 10 66 10 107 -1z m158 -1740 l0 -300 -55
0 -55 0 0 300 0 300 55 0 55 0 0 -300z m658 173 l3 -53 35 0 c33 0 34 -1 34
-40 0 -39 -1 -40 -35 -40 l-35 0 0 -118 c0 -128 5 -142 52 -142 26 0 28 -3 28
-39 0 -32 -4 -40 -22 -45 -62 -16 -136 3 -154 41 -5 10 -11 81 -14 158 l-5
140 -32 3 c-31 3 -33 6 -33 43 0 38 1 39 35 39 l35 0 0 56 0 55 53 -3 52 -3 3
-52z m1112 2 l0 -55 40 0 c40 0 40 0 40 -39 0 -39 -1 -40 -37 -43 l-38 -3 -3
-111 c-3 -122 5 -144 54 -144 21 0 24 -4 24 -40 0 -34 -3 -40 -26 -46 -44 -11
-105 3 -133 30 -25 26 -26 31 -29 171 l-3 145 -30 0 c-27 0 -29 2 -29 40 0 38
2 40 30 40 29 0 30 1 30 48 0 27 3 52 7 55 3 4 28 7 55 7 l48 0 0 -55z m-1420
-61 c63 -26 83 -62 87 -161 2 -46 4 -121 6 -168 l3 -85 -53 0 c-36 0 -55 4
-59 14 -4 11 -12 10 -42 -5 -125 -64 -258 52 -197 171 21 40 76 66 158 75 65
7 67 8 67 36 0 59 -88 76 -112 23 -10 -21 -18 -24 -65 -24 -59 0 -65 9 -39 59
19 35 37 50 83 67 52 18 114 17 163 -2z m703 2 c39 -16 82 -61 96 -99 6 -16
11 -55 11 -88 l0 -59 -130 0 c-143 0 -151 -4 -107 -55 31 -37 89 -43 142 -16
l39 21 26 -25 c30 -31 22 -49 -36 -79 -29 -16 -58 -21 -110 -21 -60 0 -77 4
-111 27 -55 36 -84 86 -90 156 -10 105 30 191 107 230 51 25 115 29 163 8z
m450 -14 c34 -22 54 -51 59 -87 3 -18 -4 -20 -49 -23 -49 -3 -54 -1 -65 23
-13 30 -50 42 -87 29 -20 -7 -26 -16 -26 -39 0 -32 7 -35 121 -65 57 -14 91
-44 105 -90 10 -32 9 -44 -7 -76 -28 -57 -73 -79 -164 -79 -85 0 -132 21 -162
73 -30 50 -24 62 28 62 38 0 51 -5 74 -30 34 -37 87 -41 116 -9 28 31 8 50
-86 81 -108 35 -135 61 -135 127 0 57 19 84 80 113 52 25 149 20 198 -10z"/>
<path d="M805 645 c-28 -27 -30 -37 -15 -66 8 -13 21 -19 46 -19 58 0 74 14
74 65 l0 45 -40 0 c-30 0 -47 -7 -65 -25z"/>
<path d="M1532 813 c-13 -5 -42 -55 -42 -73 0 -6 29 -10 75 -10 73 0 75 1 75
24 0 43 -63 77 -108 59z"/>
</g>
</svg>
